<?xml version="1.0" encoding="utf-8"?>
<!-- Generator: Adobe Illustrator 26.0.1, SVG Export Plug-In . SVG Version: 6.00 Build 0)  -->
<svg version="1.1" id="Layer_1" xmlns="http://www.w3.org/2000/svg" xmlns:xlink="http://www.w3.org/1999/xlink" x="0px" y="0px"
	 viewBox="0 0 60 60" style="enable-background:new 0 0 60 60;" xml:space="preserve">
<style type="text/css">
	.st0{fill:#1E2212;}
</style>
<path class="st0" d="M1,33.1c0-1.9,0-3.8,0-5.7C1,24.5,3,23.5,5.4,23c0.2,0,0.4-0.2,0.6-0.2c2.2-0.8,2.7-2.1,1.7-4.2
	c-2-4.4-3-3.6,1.4-8.4C9.4,9.8,9.7,9.5,10,9.2C14.6,5,13.9,6,18.1,7.9c0.1,0,0.2,0.1,0.3,0.1c1.9,0.9,3.3,0.3,4-1.6
	c0.3-0.9,0.6-1.9,1-2.8c0.5-1.2,1.2-2,2.7-2.1c1.7-0.1,3.5-0.4,5.2-0.2c4.9,0.3,4.6,0.3,5.9,4.2c0.1,0.3,0.2,0.7,0.4,1
	c0.6,1.8,2.1,2.4,3.9,1.6c5-2.3,5-2.3,8.9,1.5c0.3,0.3,0.5,0.5,0.8,0.8c4,4.4,3,3.8,1.2,7.9c0,0.1-0.1,0.2-0.1,0.3
	c-1,2-0.4,3.4,1.7,4.1c0.9,0.3,1.9,0.7,2.8,1c1.2,0.4,1.9,1.2,2,2.6c0.1,1.5,0.3,2.9,0.3,4.4c0,5.2-0.1,5.4-5,7.1
	c-2.2,0.8-2.7,2.1-1.7,4.2c2.2,4.6,2.2,4.7-1.4,8.4c-0.3,0.3-0.5,0.5-0.8,0.8c-4.8,4.3-3.9,3.4-8.4,1.4c-2.1-1-3.5-0.5-4.2,1.7
	c-0.8,2.4-1.4,4.9-4.7,5c-1.9,0-3.8,0-5.7,0c-2.8-0.1-3.9-2-4.4-4.4c-0.1-0.3-0.2-0.5-0.3-0.7c-0.7-2-2.1-2.5-4-1.6
	c-0.9,0.4-1.8,0.8-2.7,1.3c-1.2,0.6-2.2,0.5-3.2-0.4c-1.3-1.1-2.6-2.1-3.7-3.4c-3.9-4.3-3-3.8-1.2-7.8c1.2-2.6,0.7-3.8-2-4.6
	C3.2,36.8,1,36.1,1,33.1z M29.9,54.1c1.8,0.5,2.5-0.4,3-2c0.3-1.1,0.7-2.6,1.5-3.2c1.6-1.1,3.5-1.9,5.4-2.3c0.9-0.2,2.2,0.5,3.2,1
	c1.4,0.7,2.5,1.2,3.9-0.3c1.1-1.3,1.5-2.2,0.6-3.6c-0.4-0.6-0.8-1.4-1-2.1c-0.2-0.7-0.2-1.5,0-2.1c1-3.3,2.4-6.2,6.3-6.6
	c0.4,0,1-0.5,1-0.8c0.1-1.2,0.3-2.5-0.1-3.6c-0.2-0.6-1.5-0.8-2.2-1.2c-1.1-0.5-2.6-0.8-3.1-1.7c-1.3-2.8-3.5-5.6-1-8.8
	c1.1-1.4,0.6-2.5-0.6-3.4c-0.3-0.2-0.5-0.6-0.8-0.7c-0.6-0.2-1.3-0.5-1.7-0.2c-2.6,1.6-5.1,1.9-7.9,0.4c-1.6-0.9-2.8-1.6-3.3-3.4
	c-0.1-0.6-0.5-1.1-0.5-1.6c-0.3-1.7-1.5-1.4-2.6-1.4c-1.1,0-2.3-0.3-2.6,1.4c-0.5,2.8-2.1,4.6-5,5.5c-1.9,0.6-3.4,0.8-5.2-0.2
	c-2.6-1.4-2.6-1.3-4.7,0.8c-0.8,0.8-0.8,1.4-0.3,2.3c0.6,1.3,1.7,2.9,1.4,4c-0.8,2.9-1.2,6.2-5.2,7.1C5.9,27.8,6,28.1,6,30.6
	c0,0.3-0.1,0.6,0,0.8c0.3,0.5,0.6,1.2,1,1.3c3.6,0.6,5.4,2.8,6.2,6.2c0.2,1,0.2,2.1,0,3.1c-0.1,0.7-0.5,1.5-1,2.1
	c-1.1,1.5,0,2.2,0.8,3.1c0.9,0.9,1.6,1.6,3,0.8c1.2-0.7,2.9-1.6,4-1.3c3,0.8,6.5,1.5,7,5.6C27.4,53.9,28.3,54.6,29.9,54.1z"/>
<path class="st0" d="M30,41.2c-6.3,0-11.5-5.2-11.6-11.5c0-6.4,5.3-11.7,11.6-11.6c6.3,0.1,11.5,5.3,11.5,11.6
	C41.5,36,36.3,41.2,30,41.2z M29.9,23.2c-3.6,0-6.5,3-6.4,6.5c0.1,3.6,3.1,6.5,6.6,6.4c3.6-0.1,6.5-3.1,6.4-6.6
	C36.4,26,33.5,23.2,29.9,23.2z"/>
</svg>
