<?xml version="1.0" encoding="utf-8"?>
<!-- Generator: Adobe Illustrator 26.0.1, SVG Export Plug-In . SVG Version: 6.00 Build 0)  -->
<svg version="1.1" xmlns="http://www.w3.org/2000/svg" xmlns:xlink="http://www.w3.org/1999/xlink" x="0px" y="0px"
	 viewBox="0 0 512 512" style="enable-background:new 0 0 512 512;" xml:space="preserve">
<style type="text/css">
	.st0{fill:#B2C5BF;}
	.st1{fill:#DEEDD6;}
	.st2{fill:#1E2212;}
</style>
<g id="Layer_2">
	<path class="st0" d="M438.1,512H73.9C33.1,512,0,478.9,0,438.1V73.9C0,33.1,33.1,0,73.9,0h364.2C478.9,0,512,33.1,512,73.9v364.2
		C512,478.9,478.9,512,438.1,512z"/>
	<path class="st1" d="M430.4,500.5H66.2c-40.8,0-73.9-33.1-73.9-73.9V62.4c0-40.8,33.1-73.9,73.9-73.9h364.2
		c40.8,0,73.9,33.1,73.9,73.9v364.2C504.3,467.4,471.3,500.5,430.4,500.5z"/>
</g>
<g id="Layer_1">
	<g>
		<g>
			<path class="st2" d="M80.4,138.3l-10,61.5h-20L67.3,96.1h19.2L83.5,113H85c3.1-5.4,7.7-10,13.1-13.1s12.3-4.6,20-4.6
				c6.9,0,13.1,1.5,17.7,4.6s8.5,7.7,10,13.1c2.3,6.1,2.3,13.1,0.8,21.5l-10.8,66.1h-19.2l10.8-63.8c1.5-7.7,0-13.1-3.1-17.7
				c-3.1-4.6-8.5-6.1-15.4-6.1c-4.6,0-9.2,0.8-13.1,3.1c-3.8,2.3-6.9,4.6-10,9.2C83.5,128.4,81.2,133,80.4,138.3z"/>
			<path class="st2" d="M236.4,156.8l10-60.7h20l-16.9,103.8h-20l3.1-17.7h-0.8c-3.1,5.4-7.7,10-13.8,13.8s-13.1,5.4-20.8,5.4
				c-6.9,0-12.3-1.5-16.9-4.6s-7.7-7.7-10-13.1c-2.3-5.4-2.3-13.1-0.8-21.5l10.8-66.1h20l-10.8,63.8c-0.8,6.9,0,12.3,3.1,16.9
				c3.1,3.8,7.7,6.1,13.8,6.1c3.8,0,7.7-0.8,11.5-3.1s7.7-4.6,10.8-8.5C231.8,167.6,235.6,162.9,236.4,156.8z"/>
			<polygon class="st2" points="341.7,96.1 339.4,112.2 282.5,112.2 284.8,96.1 			"/>
			<path class="st2" d="M304.8,71.5h20l-16.1,97.6c-0.8,3.8-0.8,6.9,0,8.5c0.8,2.3,2.3,3.1,3.8,3.8s3.8,0.8,6.1,0.8
				c1.5,0,3.1,0,4.6,0c1.5,0,2.3-0.8,3.1-0.8l0.8,16.9c-1.5,0.8-3.1,0.8-5.4,1.5c-2.3,0.8-5.4,0.8-8.5,0.8c-5.4,0-10-0.8-14.6-3.1
				c-4.6-2.3-7.7-5.4-9.2-9.2c-1.5-3.8-2.3-9.2-1.5-15.4L304.8,71.5z"/>
			<path class="st2" d="M347.1,199.8L364,96.1h19.2l-3.1,16.1h0.8c3.1-5.4,6.9-10,12.3-13.1c5.4-3.1,10.8-4.6,16.9-4.6
				c1.5,0,3.1,0,4.6,0c1.5,0,3.1,0,3.8,0l-3.1,19.2c-0.8,0-2.3-0.8-3.8-0.8s-3.8-0.8-6.1-0.8c-4.6,0-9.2,0.8-13.1,3.1
				c-3.8,2.3-7.7,4.6-10,8.5c-3.1,3.8-4.6,7.7-5.4,12.3l-10.8,63h-19.2V199.8z"/>
			<polygon class="st2" points="420.1,199.8 437,96.1 457,96.1 440.1,199.8 			"/>
		</g>
	</g>
	<g>
		<g>
			<path class="st2" d="M126.9,455.5c-10,0-18.4-2.3-24.6-6.9s-10.8-10.8-13.1-19.2c-2.3-7.7-3.1-16.9-1.5-27.7s5.4-20,10.8-27.7
				c5.4-7.7,11.5-14.6,20-19.2c7.7-4.6,16.9-6.9,26.9-6.9c7.7,0,14.6,1.5,20,4.6c5.4,3.1,10,6.9,13.1,12.3
				c3.1,5.4,3.8,11.5,3.8,18.4h-20c0-4.6-2.3-9.2-5.4-12.3c-3.1-3.1-8.5-5.4-14.6-5.4c-5.4,0-10.8,1.5-15.4,4.6
				c-4.6,3.1-8.5,6.9-12.3,12.3c-3.1,5.4-5.4,11.5-6.9,19.2c-1.5,7.7-1.5,13.8,0,19.2c1.5,5.4,3.8,10,7.7,13.1
				c3.8,3.1,8.5,4.6,13.8,4.6c3.8,0,7.7-0.8,10.8-2.3c3.1-1.5,6.1-3.1,9.2-6.1c2.3-2.3,4.6-6.1,6.1-9.2h20
				c-1.5,6.9-5.4,12.3-9.2,17.7c-4.6,5.4-10,9.2-16.9,12.3C142.3,454,134.6,455.5,126.9,455.5z"/>
			<path class="st2" d="M220.7,455.5c-6.9,0-12.3-1.5-16.9-3.8c-4.6-2.3-8.5-6.1-10.8-10.8c-2.3-4.6-3.1-10.8-1.5-16.9
				c0.8-6.1,3.1-10.8,6.1-14.6c3.1-3.8,6.1-6.9,10.8-9.2c3.8-2.3,8.5-3.8,13.8-5.4c4.6-0.8,10-2.3,14.6-2.3
				c6.1-0.8,11.5-1.5,15.4-1.5c3.8,0,6.9-1.5,8.5-2.3c2.3-0.8,3.1-3.1,3.8-5.4v-0.8c0.8-6.1,0-10.8-2.3-13.8
				c-2.3-3.1-6.9-4.6-13.8-4.6c-6.9,0-12.3,1.5-16.9,4.6s-7.7,6.1-10,10L203,374c3.1-6.1,7.7-11.5,12.3-15.4
				c5.4-3.8,10.8-6.9,16.1-8.5c6.1-1.5,12.3-2.3,18.4-2.3c3.8,0,8.5,0.8,13.1,1.5c4.6,0.8,8.5,3.1,12.3,5.4
				c3.8,2.3,6.1,6.1,8.5,10.8c2.3,4.6,2.3,10.8,0.8,18.4l-11.5,68.4h-20l2.3-13.8h-0.8c-1.5,2.3-3.8,5.4-6.9,7.7
				c-3.1,2.3-6.9,4.6-10.8,6.1S226.8,455.5,220.7,455.5z M227.6,439.4c5.4,0,10.8-0.8,14.6-3.1c4.6-2.3,7.7-5.4,10.8-8.5
				c3.1-3.8,4.6-7.7,5.4-11.5l2.3-13.1c-0.8,0.8-2.3,1.5-4.6,2.3c-2.3,0.8-4.6,0.8-6.9,1.5c-2.3,0.8-5.4,0.8-7.7,0.8
				c-2.3,0-4.6,0.8-6.1,0.8c-3.8,0.8-7.7,1.5-11.5,2.3c-3.8,0.8-6.1,3.1-8.5,5.4c-2.3,2.3-3.8,5.4-4.6,8.5c-0.8,4.6,0,8.5,3.8,11.5
				C217.6,437.8,222.2,439.4,227.6,439.4z"/>
			<path class="st2" d="M299.1,453.2L316,349.4h19.2l-3.1,16.1h0.8c3.1-5.4,6.9-10,12.3-13.1c5.4-3.1,10.8-4.6,16.9-4.6
				c1.5,0,3.1,0,4.6,0s3.1,0,3.8,0l-3.1,19.2c-0.8,0-2.3-0.8-3.8-0.8c-2.3,0-3.8-0.8-6.1-0.8c-4.6,0-9.2,0.8-13.1,3.1
				c-3.8,2.3-7.7,4.6-10,8.5c-3.1,3.8-4.6,7.7-5.4,12.3l-10.8,63h-19.2V453.2z"/>
			<path class="st2" d="M438.2,349.4l-2.3,16.1H379l2.3-16.1H438.2z M400.5,324.8h20l-16.1,97.6c-0.8,3.8-0.8,6.9,0,8.5
				c0.8,2.3,2.3,3.1,3.8,3.8c1.5,0.8,3.8,0.8,6.1,0.8c1.5,0,3.1,0,4.6,0s2.3-0.8,3.1-0.8l0.8,16.9c-1.5,0.8-3.1,0.8-5.4,1.5
				c-2.3,0.8-5.4,0.8-8.5,0.8c-5.4,0-10-0.8-14.6-3.1c-4.6-2.3-7.7-5.4-9.2-9.2c-1.5-3.8-2.3-9.2-1.5-15.4L400.5,324.8z"/>
		</g>
	</g>
	<g id="Layer_2_00000167387729691317211440000009755522909283934890_">
		<polygon class="st2" points="426.8,285.6 200.6,285.6 197.6,302.4 424.3,302.4 		"/>
		<polygon class="st2" points="431.4,260.7 205.2,260.7 202.2,277.5 428.3,277.5 		"/>
		<polygon class="st2" points="435.4,234.7 209.3,234.7 206.2,251.5 432.4,251.5 		"/>
		<g>
			<g>
				<g>
					<path class="st2" d="M177.8,285.1l12.2-59h16.3l-0.5-9.2h-23.9l-3.1,13.7H74.5l21.9,54.4H177.8L177.8,285.1L177.8,285.1z
						 M177.2,239.8l-7.1,35.6h-66.6l-13.7-35.6H177.2z"/>
					<path class="st2" d="M166.6,318.7c8.1,0,14.2-6.6,14.2-14.7c0-8.1-7.6-14.7-15.8-14.7h-55.9c-8.1,0-14.2,6.6-14.2,14.7
						c0.5,8.1,7.6,14.7,15.8,14.7s14.2-6.6,14.2-14.7c0-2-0.5-4.1-1.5-5.6h28.5c-0.5,1.5-1,3.6-1,5.6
						C151.3,312,158.4,318.7,166.6,318.7z M115.7,303.9c0,3.1-2,5.6-5.1,5.6s-5.6-2.5-5.6-5.6c0-3.1,2-5.6,5.1-5.6
						C112.7,298.3,115.7,300.9,115.7,303.9z M171.6,303.9c0,3.1-2,5.6-5.1,5.6s-5.6-2.5-5.6-5.6c0-3.1,2-5.6,5.1-5.6
						S171.1,300.9,171.6,303.9z"/>
				</g>
			</g>
		</g>
	</g>
</g>
</svg>
