<?xml version="1.0" encoding="utf-8"?>
<!-- Generator: Adobe Illustrator 26.0.1, SVG Export Plug-In . SVG Version: 6.00 Build 0)  -->
<svg version="1.1" xmlns="http://www.w3.org/2000/svg" xmlns:xlink="http://www.w3.org/1999/xlink" x="0px" y="0px"
	 viewBox="0 0 150 44" style="enable-background:new 0 0 150 44;" xml:space="preserve">
<style type="text/css">
	.st0{fill:#1E2212;}
	.st1{fill:#DEEDD6;}
</style>
<g id="Layer_1">
	<g>
		<g>
			<path class="st0" d="M16.4,13.8l-1.5,9.3h-3l2.6-15.7h2.9L16.9,10h0.2c0.5-0.8,1.2-1.5,2-2C20,7.5,21,7.2,22.2,7.2
				c1.1,0,1.9,0.2,2.7,0.7c0.7,0.4,1.2,1.1,1.5,2c0.3,0.9,0.3,2,0.1,3.3l-1.7,10h-3.1l1.6-9.6c0.2-1.1,0-2-0.4-2.7
				c-0.5-0.6-1.2-1-2.3-1c-0.7,0-1.4,0.2-2,0.5c-0.6,0.3-1.1,0.8-1.5,1.3C16.8,12.2,16.6,12.9,16.4,13.8z"/>
			<path class="st0" d="M40,16.6l1.5-9.2h3.1L42,23.1h-3l0.5-2.7h-0.2c-0.5,0.8-1.2,1.5-2.1,2.1c-0.9,0.6-1.9,0.8-3.1,0.8
				c-1,0-1.9-0.2-2.6-0.7c-0.7-0.4-1.2-1.1-1.5-2c-0.3-0.9-0.3-2-0.1-3.3l1.7-10h3L33,17c-0.2,1.1,0,1.9,0.5,2.6
				c0.5,0.6,1.2,0.9,2.1,0.9c0.6,0,1.2-0.1,1.8-0.4c0.6-0.3,1.2-0.7,1.6-1.3C39.5,18.2,39.8,17.5,40,16.6z"/>
			<path class="st0" d="M56,7.4l-0.4,2.4H47l0.4-2.4H56z M50.3,3.7h3l-2.5,14.8c-0.1,0.6-0.1,1,0.1,1.3c0.1,0.3,0.3,0.5,0.6,0.6
				s0.6,0.2,0.9,0.2c0.2,0,0.5,0,0.6-0.1c0.2,0,0.3-0.1,0.4-0.1l0.2,2.5c-0.2,0.1-0.5,0.1-0.8,0.2c-0.3,0.1-0.8,0.1-1.2,0.1
				c-0.8,0-1.5-0.1-2.2-0.4s-1.1-0.8-1.4-1.4c-0.3-0.6-0.4-1.4-0.2-2.4L50.3,3.7z"/>
			<path class="st0" d="M56.7,23.1l2.6-15.7h2.9l-0.4,2.5H62c0.4-0.8,1-1.5,1.9-2c0.8-0.5,1.7-0.7,2.6-0.7c0.2,0,0.4,0,0.7,0
				s0.5,0,0.6,0.1l-0.5,2.9c-0.1,0-0.3-0.1-0.6-0.1C66.3,10,66,10,65.7,10c-0.7,0-1.4,0.2-2,0.5c-0.6,0.3-1.1,0.7-1.5,1.3
				c-0.4,0.5-0.7,1.1-0.8,1.8l-1.6,9.6H56.7z"/>
			<path class="st0" d="M67.8,23.1l2.6-15.7h3l-2.6,15.7H67.8z M72.6,5c-0.5,0-1-0.2-1.3-0.5c-0.4-0.4-0.5-0.8-0.5-1.3
				c0-0.5,0.2-0.9,0.6-1.3c0.4-0.4,0.9-0.5,1.4-0.5s1,0.2,1.3,0.5c0.4,0.4,0.5,0.8,0.5,1.3c0,0.5-0.2,0.9-0.6,1.3
				C73.6,4.8,73.1,5,72.6,5z"/>
		</g>
	</g>
	<g>
		<g>
			<path class="st0" d="M93.9,38.8c-1.5,0-2.8-0.3-3.7-1c-1-0.7-1.6-1.6-2-2.9c-0.4-1.2-0.4-2.6-0.2-4.2c0.3-1.6,0.8-3,1.6-4.2
				s1.8-2.2,3-2.9c1.2-0.7,2.5-1,4-1c1.2,0,2.2,0.2,3.1,0.7s1.5,1.1,1.9,1.8c0.4,0.8,0.6,1.7,0.6,2.8h-3c0-0.7-0.3-1.4-0.8-1.9
				c-0.5-0.5-1.2-0.8-2.2-0.8c-0.9,0-1.6,0.2-2.4,0.7s-1.3,1.1-1.8,1.9c-0.5,0.8-0.8,1.8-1,2.9c-0.2,1.1-0.2,2.1,0,3
				c0.2,0.8,0.6,1.5,1.2,1.9c0.6,0.5,1.3,0.7,2.1,0.7c0.6,0,1.1-0.1,1.6-0.3s1-0.5,1.3-0.9c0.4-0.4,0.7-0.9,0.9-1.4h3
				c-0.3,1-0.8,1.9-1.5,2.7c-0.7,0.8-1.5,1.4-2.5,1.9C96.2,38.6,95.1,38.8,93.9,38.8z"/>
			<path class="st0" d="M108.1,38.8c-1,0-1.9-0.2-2.6-0.6c-0.7-0.4-1.3-0.9-1.6-1.6c-0.4-0.7-0.4-1.6-0.3-2.6
				c0.2-0.9,0.5-1.6,0.9-2.2c0.4-0.6,1-1,1.6-1.4c0.6-0.3,1.3-0.6,2.1-0.8s1.5-0.3,2.2-0.4c1-0.1,1.7-0.2,2.3-0.3
				c0.6-0.1,1-0.2,1.3-0.4s0.5-0.4,0.5-0.8v-0.1c0.1-0.9,0-1.6-0.4-2.1c-0.4-0.5-1.1-0.7-2.1-0.7c-1,0-1.9,0.2-2.6,0.7
				c-0.7,0.5-1.2,1-1.5,1.5l-2.7-0.7c0.5-1,1.1-1.7,1.9-2.3c0.8-0.6,1.6-1,2.5-1.3s1.8-0.4,2.8-0.4c0.6,0,1.3,0.1,1.9,0.2
				c0.7,0.1,1.3,0.4,1.8,0.8c0.6,0.4,1,0.9,1.2,1.7c0.3,0.7,0.3,1.6,0.1,2.8l-1.7,10.4h-3l0.4-2.1h-0.1c-0.3,0.4-0.6,0.8-1.1,1.2
				s-1,0.7-1.7,0.9C109.8,38.7,109,38.8,108.1,38.8z M109.2,36.4c0.8,0,1.6-0.2,2.2-0.5c0.7-0.3,1.2-0.8,1.6-1.3
				c0.4-0.5,0.7-1.1,0.8-1.7l0.3-2c-0.1,0.1-0.4,0.2-0.7,0.3s-0.7,0.2-1.1,0.2c-0.4,0.1-0.8,0.1-1.2,0.2s-0.7,0.1-0.9,0.1
				c-0.6,0.1-1.2,0.2-1.7,0.4c-0.5,0.2-1,0.4-1.3,0.8c-0.3,0.3-0.6,0.8-0.6,1.3c-0.1,0.8,0,1.3,0.5,1.7
				C107.6,36.2,108.3,36.4,109.2,36.4z"/>
			<path class="st0" d="M120,38.5l2.6-15.7h2.9l-0.4,2.5h0.2c0.4-0.8,1-1.5,1.9-2c0.8-0.5,1.7-0.7,2.6-0.7c0.2,0,0.4,0,0.7,0
				s0.5,0,0.6,0.1l-0.5,2.9c-0.1,0-0.3-0.1-0.6-0.1c-0.3,0-0.6-0.1-0.9-0.1c-0.7,0-1.4,0.2-2,0.5c-0.6,0.3-1.1,0.7-1.5,1.3
				c-0.4,0.5-0.7,1.1-0.8,1.8l-1.6,9.6H120z"/>
			<path class="st0" d="M141,22.8l-0.4,2.4H132l0.4-2.4H141z M135.3,19.1h3l-2.5,14.8c-0.1,0.6-0.1,1,0.1,1.3
				c0.1,0.3,0.3,0.5,0.6,0.6s0.6,0.2,0.9,0.2c0.2,0,0.5,0,0.6-0.1s0.3-0.1,0.4-0.1l0.2,2.5c-0.2,0.1-0.5,0.1-0.8,0.2
				c-0.3,0.1-0.8,0.1-1.2,0.1c-0.8,0-1.5-0.1-2.2-0.4c-0.6-0.3-1.1-0.8-1.4-1.4c-0.3-0.6-0.4-1.4-0.2-2.4L135.3,19.1z"/>
		</g>
	</g>
</g>
<g id="Layer_2">
	<polygon class="st0" points="126.7,13.2 77.6,13.2 77,16.5 126.1,16.5 	"/>
	<polygon class="st0" points="141.3,8.1 78.4,8.1 77.8,11.4 140.8,11.4 	"/>
	<polygon class="st0" points="84,33.9 64.2,33.9 63.7,37.2 83.4,37.2 	"/>
	<polygon class="st0" points="84.9,28.8 65.1,28.8 64.5,32.1 84.3,32.1 	"/>
	<g>
		<g>
			<g>
				<path class="st0" d="M60.8,36.5l2-10h2.8L65.6,25h-4l-0.5,2.3l-17.7,0l3.7,9.2L60.8,36.5L60.8,36.5L60.8,36.5z M60.8,28.9
					L59.6,35H48.3L46,28.9L60.8,28.9z"/>
				<path class="st0" d="M59,42.3c1.4,0,2.4-1.1,2.4-2.5s-1.3-2.5-2.6-2.5h-9.4c-1.4,0-2.4,1.1-2.4,2.5s1.3,2.5,2.6,2.5
					s2.4-1.1,2.4-2.5c0-0.3-0.1-0.6-0.2-0.9h4.8c-0.1,0.3-0.2,0.6-0.1,0.9C56.4,41.1,57.6,42.3,59,42.3z M50.4,39.8
					c0,0.5-0.4,0.9-0.9,0.9s-1-0.4-1-0.9c0-0.5,0.4-0.9,0.9-0.9C49.9,38.8,50.3,39.2,50.4,39.8z M59.8,39.8c0,0.5-0.4,0.9-0.9,0.9
					s-1-0.4-1-0.9c0-0.5,0.4-0.9,0.9-0.9S59.8,39.2,59.8,39.8z"/>
			</g>
		</g>
	</g>
	<rect x="-11.9" y="-10.2" class="st1" width="6.5" height="5.5"/>
</g>
</svg>
